<svg xmlns="http://www.w3.org/2000/svg" xmlns:xlink="http://www.w3.org/1999/xlink" width="243.1034" height="243.1034" viewBox="0 0 243.1034 243.1034"><defs><style>.a{fill:none;}.b{clip-path:url(#a);}.c{fill:#e6e7e8;}</style><clipPath id="a" transform="translate(-418.4483 -418.4483)"><rect class="a" x="418.4483" y="418.4483" width="243.1034" height="243.1034"/></clipPath></defs><g class="b"><g class="b"><path d="M418.4483,540A121.5517,121.5517,0,1,1,540,661.5517,121.5516,121.5516,0,0,1,418.4483,540" transform="translate(-418.4483 -418.4483)"/><path class="c" d="M606.7849,482.0474a24.6713,24.6713,0,1,0,24.6713,24.6681,24.6695,24.6695,0,0,0-24.6713-24.6681m0,44.5545a19.8848,19.8848,0,1,1,19.8864-19.8864,19.8865,19.8865,0,0,1-19.8864,19.8864" transform="translate(-418.4483 -418.4483)"/></g><path class="c" d="M591.6953,499.9194h13.7686v3.8716h-4.62v11.8076h-4.5293V503.791h-4.6192Z" transform="translate(-418.4483 -418.4483)"/><path class="c" d="M606.0732,499.9194h4.7354l3.2988,11.2837,3.2569-11.2837h4.5966l-5.4423,15.6792h-4.9092Z" transform="translate(-418.4483 -418.4483)"/><g class="b"><path class="c" d="M587.0048,592.893c-.1126.2751-.2344.547-.3657.8126a2.0176,2.0176,0,0,1-3.6941-.125l-5.9662-15.08-27.8623-70.41-2.2471-5.6756a2.0156,2.0156,0,0,0-3.0221-.9126c-.0375.0281-.075.0563-.1126.0875a1.9515,1.9515,0,0,0-.375.4063l-.0062.0125a2.0924,2.0924,0,0,0-.2157.4063.0283.0283,0,0,0-.0031.0156l-6.5257,16.4829-2.469,6.6445-1.5314,4.1223a.0445.0445,0,0,0-.0062.0187l-1.919,5.1537L521.52,559.5021s-6.4663,16.8736-9.054,23.7525a26.1649,26.1649,0,0,1-1.7784,3.8222,25.9038,25.9038,0,0,1-2.3252,3.4254,20.6469,20.6469,0,0,1-5.1411,4.441c-.0188.0125-.0344.025-.05.0344a21.7292,21.7292,0,0,1-3.05,1.55c-.0656.0281-.1343.0531-.2031.0812a19.81,19.81,0,0,1-3.65,1.0283l-.0125.0031a19.5616,19.5616,0,0,1-8.01-.2188c-.4563-.0781-.9157-.1719-1.3689-.2781-.0593-.0125-.1156-.0282-.175-.0469-1.1-.3438-2.1908-.722-3.2628-1.1345-.2031-.075-.4063-.1531-.6063-.2344-.6126-.2438-1.222-.4969-1.8221-.7626-1.2751-.5625-2.5221-1.1688-3.7441-1.8283h-.0031a53.8761,53.8761,0,0,1-26.4652-32.0814c-.1719-.5813-.3375-1.1657-.4876-1.7533q-.5062-1.9173-.8657-3.8848c-.0156-.0781-.0281-.1562-.0437-.2343-.2751-1.5346-.4876-3.091-.6282-4.663-.075-.8095-.1282-1.6221-.1688-2.4409-.0406-.847-.0594-1.7033-.0594-2.5628a54.1894,54.1894,0,0,1,3.4379-19.055c.2938-.797.6125-1.5877.947-2.3628a52.9177,52.9177,0,0,1,2.9846-5.9162,54.6083,54.6083,0,0,1,23.5712-21.73c.6407-.3282,1.2126-.6063,1.7033-.8376a56.7132,56.7132,0,0,1,22.6054-5.2787,3.75,3.75,0,0,1,.2031,7.4977,49.2581,49.2581,0,0,0-19.6332,4.5786,51.5287,51.5287,0,0,0-8.7728,5.3036,46.6829,46.6829,0,0,0-8.6915,8.1665,44.5568,44.5568,0,0,0-9.0134,17.1892,44.0734,44.0734,0,0,0-1.1407,5.7537.1851.1851,0,0,1-.0063.0407,48.7548,48.7548,0,0,0,5.4256,28.806c2.0439,3.9129,10.6167,15.8423,22.9023,20.9834.0656.025.1313.05.1969.0719a15.1662,15.1662,0,0,0,9.7947.1969,13.5179,13.5179,0,0,0,1.794-.7907,14.2591,14.2591,0,0,0,4.7223-4.05l.0063-.0063a15.4044,15.4044,0,0,0,1.3907-1.9408l.0563-.1407a28.301,28.301,0,0,0,2.11-4.26l6.6475-17.1142,13.7483-37.782,3.6816-10.3448.4407-1.2438,4.4379-12.4826a11.9963,11.9963,0,0,1,22.6055,0L568.231,531.19l13.0982,36.8319L587.161,584.42a11.9015,11.9015,0,0,1-.1562,8.4727" transform="translate(-418.4483 -418.4483)"/></g></g></svg>