<svg xmlns="http://www.w3.org/2000/svg" xmlns:xlink="http://www.w3.org/1999/xlink" width="313.243" height="64.1024" viewBox="0 0 313.243 64.1024"><defs><style>.a{fill:none;}.b{clip-path:url(#a);}.c{fill:#fff;}</style><clipPath id="a" transform="translate(-5.5971 -4.1882)"><rect class="a" x="5.5971" y="4.1893" width="65.4095" height="64.0996"/></clipPath></defs><g class="b"><g class="b"><path class="c" d="M52.1986,25.8005h3.7038v1.0416H54.66v3.1768H53.4409V26.8421H52.1981Zm3.8685,0h1.2738l.8877,3.036.8762-3.036h1.237l-1.4639,4.2182H57.557ZM50.9362,50.2116c-.03.0725-.0631.1442-.0984.2137a.5473.5473,0,0,1-.9939-.033l-1.6053-3.976L40.7419,27.8518l-.6046-1.4966a.5472.5472,0,0,0-.7163-.2932.54.54,0,0,0-.0968.0526l-.03.0231a.5183.5183,0,0,0-.101.1071l-.0016.0033a.5437.5437,0,0,0-.0581.1071l-.0008.0041-1.7558,4.3459-.6643,1.7522L36.3,33.5444l-.0016.0048-.5164,1.3589-2.4655,6.4994s-1.74,4.4491-2.436,6.2629a6.8179,6.8179,0,0,1-1.1042,1.911,5.5284,5.5284,0,0,1-1.3832,1.171l-.0135.009a5.8924,5.8924,0,0,1-.8207.4088l-.0546.0214a5.4255,5.4255,0,0,1-.9829.2707l-.0035.0008a5.37,5.37,0,0,1-2.1552-.0577c-.1226-.0206-.2463-.0453-.3682-.0734a.4739.4739,0,0,1-.0472-.0123c-.2959-.0906-.59-.19-.8778-.2992-.0547-.02-.1094-.0405-.1631-.0618-.1648-.0644-.3288-.1311-.49-.2012-.343-.1483-.6785-.3081-1.0073-.4821h-.0008a14.2756,14.2756,0,0,1-7.1208-8.4589c-.0462-.1533-.0908-.3074-.1312-.4622q-.136-.5056-.233-1.0244l-.0116-.0619q-.1111-.6067-.1691-1.2294c-.02-.2137-.0345-.4273-.0455-.6436-.0108-.2234-.0159-.4491-.0159-.6758a14.0323,14.0323,0,0,1,.9257-5.0239c.079-.21.1648-.4185.2548-.6229a13.8756,13.8756,0,0,1,.803-1.56,14.3106,14.3106,0,0,1,.8895-1.3216,14.6288,14.6288,0,0,1,5.4525-4.4079c.1724-.0864.3263-.16.4583-.2208A15.5155,15.5155,0,0,1,28.5478,23.17a1.0008,1.0008,0,0,1,1.036.9618.9694.9694,0,0,1-.217.6393,1.0131,1.0131,0,0,1-.7643.3758A13.4808,13.4808,0,0,0,23.32,26.3545a13.9268,13.9268,0,0,0-2.36,1.3985,12.4588,12.4588,0,0,0-2.3386,2.1532,11.6719,11.6719,0,0,0-2.4251,4.5324,11.4214,11.4214,0,0,0-.307,1.517l-.0016.0107a12.6347,12.6347,0,0,0,1.46,7.5955,14.0131,14.0131,0,0,0,6.1621,5.5327l.053.0189a4.1592,4.1592,0,0,0,2.6355.052,3.6838,3.6838,0,0,0,.4826-.2085,3.8119,3.8119,0,0,0,1.2706-1.0685l.0017-.0017a4.0505,4.0505,0,0,0,.3742-.5117l.0151-.037a7.406,7.406,0,0,0,.5676-1.1233l1.7886-4.5126L34.3971,31.74l.9906-2.7276.1185-.3277L36.7,25.3942a3.25,3.25,0,0,1,6.0829,0l3.1028,8.5486L49.41,43.6545l1.5691,4.3237a3.08,3.08,0,0,1-.0427,2.2341M62.9094,27.4632a6.6395,6.6395,0,1,1-6.7731-6.503q.0673-.0014.1347-.0014a6.5727,6.5727,0,0,1,6.6384,6.5044m-1.2874,0a5.3513,5.3513,0,1,0-5.4582,5.2423q.0537.0011.1076.0011a5.2973,5.2973,0,0,0,5.3506-5.2434m-23.32,40.8257a32.3822,32.3822,0,0,0,32.7047-32.05A32.3824,32.3824,0,0,0,38.3018,4.19,32.3822,32.3822,0,0,0,5.5971,36.2391a32.3822,32.3822,0,0,0,32.7047,32.05" transform="translate(-5.5971 -4.1882)"/></g></g><path class="c" d="M102.1332,23.3267a15.9008,15.9008,0,0,1,5.6555,7.0373H104.994a13.2933,13.2933,0,0,0-4.7807-5.2519A13.1192,13.1192,0,0,0,83.9851,45.5144a12.5821,12.5821,0,0,0,9.2927,3.8384,12.8644,12.8644,0,0,0,6.9355-1.9517,13.3847,13.3847,0,0,0,4.7807-5.2851h2.7947a15.6312,15.6312,0,0,1-30.1329-5.8607A15.0769,15.0769,0,0,1,82.234,25.2128a15.0294,15.0294,0,0,1,11.0438-4.58A15.3493,15.3493,0,0,1,102.1332,23.3267Z" transform="translate(-5.5971 -4.1882)"/><path class="c" d="M113.4833,51.5749V20.9032h2.526V51.5749Z" transform="translate(-5.5971 -4.1882)"/><path class="c" d="M127.7943,23.4618a3.5063,3.5063,0,0,0-3.5357,3.4766l0,.0255v7.5416a.4466.4466,0,0,0,.5049.505h12.76v2.5247H124.7639c-.3362,0-.5048.1688-.5048.4374V45.548a3.5063,3.5063,0,0,0,3.51,3.5023l.0254,0h9.729v2.5247h-9.7295a5.98,5.98,0,0,1-6.06-5.8982q-.0009-.0643,0-.1287V26.9639a6.0362,6.0362,0,0,1,6.0116-6.0607h9.7779v2.5586Z" transform="translate(-5.5971 -4.1882)"/><path class="c" d="M145.3712,45.5143A3.5144,3.5144,0,0,0,148.864,49.05c.0144,0,.0288,0,.0431,0h9.73v2.5247h-9.73a5.9831,5.9831,0,0,1-6.0619-5.9033q-.001-.0786,0-.1573V20.9032h2.526Z" transform="translate(-5.5971 -4.1882)"/><path class="c" d="M164.3618,51.5749V20.9032h2.5265V51.5749Z" transform="translate(-5.5971 -4.1882)"/><path class="c" d="M196.0122,23.2932l6.9,28.282h-2.5908L198.1,42.62a.5136.5136,0,0,0-.5737-.505h-9.93a.5139.5139,0,0,0-.57.4506.4951.4951,0,0,0-.0035.0544L184.8,51.5752h-2.56l6.8693-28.282a3.548,3.548,0,0,1,6.903,0Zm-4.4446.6062-3.7383,15.2182c-.0675.3362.0338.5048.3713.5048h8.72c.3375,0,.47-.1686.3685-.5048l-3.7357-15.2185a.876.876,0,0,0-.9668-.7746l-.0093.0011a.9268.9268,0,0,0-1.01.7735Z" transform="translate(-5.5971 -4.1882)"/><path class="c" d="M216.9239,20.9032a8.2767,8.2767,0,0,1,8.25,8.303V29.22a8.0343,8.0343,0,0,1-2.391,5.8581,8.1177,8.1177,0,0,1-5.8594,2.4235h-5.7552a.4273.4273,0,0,0-.4724.4712V51.5749h-2.493V20.9032Zm-5.7552,2.5586a.4132.4132,0,0,0-.4724.4711V34.5055c0,.3362.1687.505.4724.505h5.7552a5.7463,5.7463,0,0,0,5.7583-5.7345c0-.0187,0-.0374,0-.0562a5.6893,5.6893,0,0,0-5.62-5.758q-.0691-.0009-.1382,0Z" transform="translate(-5.5971 -4.1882)"/><path class="c" d="M236.5557,23.4618A3.5071,3.5071,0,0,0,233.02,26.94l0,.0239v7.5416a.4468.4468,0,0,0,.5061.505h12.76v2.5247h-12.76c-.3375,0-.5061.1688-.5061.4374V45.548a3.5071,3.5071,0,0,0,3.512,3.5023l.0239,0h9.73v2.5247h-9.73a5.9819,5.9819,0,0,1-6.0616-5.9011q-.0009-.0628,0-.1258V26.9639a6.0385,6.0385,0,0,1,6.0162-6.0607h9.7755v2.5586Z" transform="translate(-5.5971 -4.1882)"/><path class="c" d="M260.3282,20.9032a8.2767,8.2767,0,0,1,8.25,8.303V29.22a7.9772,7.9772,0,0,1-1.6173,4.9148,8.5493,8.5493,0,0,1-4.174,2.9973c-.3037.0673-.3712.2686-.2707.5724l6.062,13.8709H265.85l-5.9919-13.636a.6927.6927,0,0,0-.641-.4375h-4.6441a.4273.4273,0,0,0-.4724.4712V51.5752h-2.4922V20.9032Zm-5.7552,2.5586a.4132.4132,0,0,0-.4724.4711V34.5055c0,.3362.1686.505.4724.505h5.7552a5.7463,5.7463,0,0,0,5.7582-5.7345c0-.0187,0-.0374,0-.0562a5.6894,5.6894,0,0,0-5.62-5.758q-.0692-.0009-.1382,0Z" transform="translate(-5.5971 -4.1882)"/><path class="c" d="M282.2494,23.4618c-.3037,0-.4725.1349-.4725.4373V51.5749h-2.5234V23.8991a.3916.3916,0,0,0-.4387-.4373h-4.9171V20.9032h13.2664v2.5586Z" transform="translate(-5.5971 -4.1882)"/><path class="c" d="M292.8574,51.5749V20.9032h2.5265V51.5749Z" transform="translate(-5.5971 -4.1882)"/><path class="c" d="M307.2439,12.0106c-.0906,0-.14.04-.14.13v8.22h-.75v-8.22a.1165.1165,0,0,0-.13-.13h-1.46v-.76h3.94v.76Z" transform="translate(-5.5971 -4.1882)"/><path class="c" d="M313.5034,19.44a1.2628,1.2628,0,0,1-1.2295,1.02,1.236,1.236,0,0,1-1.22-1.02l-1.38-8.1894h.76l1.36,8.05a.49.49,0,0,0,.97,0l1.36-8.05h.76Z" transform="translate(-5.5971 -4.1882)"/><path class="c" d="M309.8235,24.8719a9.0166,9.0166,0,1,1,9.0166-9.0166A9.0269,9.0269,0,0,1,309.8235,24.8719Zm0-17.2832a8.2666,8.2666,0,1,0,8.2666,8.2666A8.2758,8.2758,0,0,0,309.8235,7.5887Z" transform="translate(-5.5971 -4.1882)"/></svg>